<?xml version="1.0" encoding="UTF-8" standalone="no"?>
<!DOCTYPE svg PUBLIC "-//W3C//DTD SVG 1.1//EN" "http://www.w3.org/Graphics/SVG/1.1/DTD/svg11.dtd">
<svg width="100%" height="100%" viewBox="0 0 3125 1531" version="1.1" xmlns="http://www.w3.org/2000/svg" xmlns:xlink="http://www.w3.org/1999/xlink" xml:space="preserve" xmlns:serif="http://www.serif.com/" style="fill-rule:evenodd;clip-rule:evenodd;stroke-linejoin:round;stroke-miterlimit:2;">
    <g transform="matrix(1,0,0,1,-567.593,-1274.99)">
        <g transform="matrix(1,0,0,1,2224,1275)">
            <path d="M0,0C0.02,1.267 0.04,2.533 0.06,3.838C0.138,8.703 0.227,13.568 0.317,18.433C0.355,20.507 0.39,22.582 0.422,24.656C0.615,37.008 1.105,49.288 2.004,61.609C3.084,76.601 3.391,91.555 3.541,106.581C3.578,110.081 3.626,113.581 3.674,117.08C3.684,117.779 3.693,118.477 3.703,119.196C3.722,120.597 3.741,121.998 3.761,123.399C3.789,125.462 3.816,127.524 3.843,129.587C3.976,139.648 4.129,149.707 4.384,159.766C4.419,161.174 4.451,162.583 4.479,163.991C4.641,171.854 5.238,179.545 6.23,187.336C6.849,192.344 7.279,197.332 7.547,202.37C7.588,203.143 7.63,203.917 7.673,204.714C8.07,212.571 8.194,220.425 8.26,228.291C8.282,230.85 8.309,233.409 8.337,235.969C8.406,242.313 8.466,248.658 8.526,255.003C8.577,260.401 8.632,265.8 8.692,271.198C8.718,273.691 8.739,276.185 8.76,278.678C8.867,294.929 8.867,294.929 11,311C12.128,321.423 12.17,331.879 12.23,342.35C12.247,345.194 12.27,348.039 12.295,350.883C12.365,358.961 12.425,367.038 12.477,375.115C12.509,380.085 12.55,385.055 12.597,390.025C12.613,391.9 12.625,393.775 12.634,395.65C12.679,405.195 12.974,414.406 14.503,423.853C15.984,433.223 16.158,442.637 16.23,452.106C16.247,454.251 16.269,456.397 16.292,458.542C16.326,461.6 16.358,464.657 16.388,467.715C16.68,499.466 16.68,499.466 18,531.188C18.042,531.903 18.084,532.618 18.127,533.354C18.575,540.852 18.575,540.852 19.244,548.333C19.981,555.557 20.188,562.735 20.26,569.994C20.282,572.146 20.309,574.297 20.337,576.449C20.386,580.277 20.431,584.106 20.474,587.934C20.762,614.383 20.762,614.383 21.352,640.827C21.404,642.711 21.449,644.594 21.494,646.478C21.683,652.565 22.149,658.487 23.016,664.516C24.036,671.69 24.312,678.707 24.344,685.945C24.365,687.903 24.386,689.86 24.408,691.817C24.43,693.86 24.447,695.903 24.464,697.946C24.522,705.004 24.618,712.06 24.719,719.117C24.729,719.812 24.738,720.506 24.748,721.221C25.014,739.483 25.998,757.673 27.272,775.89C27.971,786.662 28.12,797.432 28.211,808.223C28.218,809.008 28.224,809.793 28.231,810.602C28.259,813.873 28.285,817.143 28.311,820.414C28.565,856.832 28.565,856.832 30.772,893.172C32.669,914.743 32.275,936.365 32,958C19.9,961.645 7.336,961.259 -5.203,961.477C-7.395,961.516 -9.586,961.568 -11.777,961.621C-13.715,961.659 -13.715,961.659 -15.691,961.697C-18.839,961.985 -20.3,962.54 -23,964C-33.055,965.647 -43.582,965.295 -53.761,965.477C-55.884,965.516 -58.006,965.568 -60.129,965.621C-62.002,965.659 -62.002,965.659 -63.912,965.697C-67.168,965.772 -67.168,965.772 -70,968C-72.226,968.395 -72.226,968.395 -74.84,968.598C-75.811,968.676 -76.783,968.755 -77.783,968.836C-78.824,968.911 -79.865,968.985 -80.938,969.063C-82.005,969.146 -83.072,969.23 -84.172,969.316C-91.936,969.907 -99.706,970.344 -107.49,970.571C-108.626,970.613 -108.626,970.613 -109.785,970.656C-110.434,970.675 -111.082,970.694 -111.75,970.713C-114.181,970.955 -114.181,970.955 -117.123,971.986C-121.78,973.37 -126.424,973.421 -131.254,973.563C-132.232,973.599 -133.21,973.636 -134.217,973.674C-137.332,973.791 -140.447,973.897 -143.563,974C-160.866,974.544 -160.866,974.544 -178.041,976.563C-182.583,977.234 -187.104,977.335 -191.688,977.438C-199.757,977.7 -207.548,978.486 -215.483,979.984C-219.461,980.712 -223.221,981.072 -227.272,981.039C-228.161,981.033 -229.05,981.028 -229.966,981.022C-230.637,981.015 -231.308,981.007 -232,981C-232.071,953.16 -232.123,925.32 -232.155,897.48C-232.171,884.546 -232.192,871.611 -232.226,858.677C-232.493,757.57 -232.493,757.57 -229.907,712.203C-229.84,711.039 -229.774,709.875 -229.706,708.676C-229.641,707.539 -229.576,706.403 -229.509,705.232C-228.381,684.621 -228.431,663.959 -228.33,643.322C-228.299,637.592 -228.253,631.863 -228.209,626.133C-228.125,615.089 -228.057,604.044 -228,593C-229.751,593.016 -229.751,593.016 -231.537,593.032C-262.415,593.283 -293.16,592.509 -324,591C-323.915,605.119 -323.82,619.239 -323.712,633.358C-323.663,639.918 -323.617,646.477 -323.578,653.036C-323.541,659.391 -323.494,665.745 -323.442,672.099C-323.424,674.499 -323.408,676.898 -323.397,679.298C-324.379,707.038 -324.379,707.038 -320,734C-319.886,736.478 -319.825,738.929 -319.811,741.408C-319.798,742.538 -319.798,742.538 -319.785,743.691C-319.768,745.333 -319.753,746.975 -319.74,748.617C-319.718,751.246 -319.691,753.876 -319.663,756.505C-319.603,762.128 -319.551,767.752 -319.5,773.375C-319.299,814.263 -319.299,814.263 -317.257,855.086C-316.062,870.733 -315.661,886.302 -315.586,901.988C-315.567,904.525 -315.548,907.062 -315.527,909.599C-315.477,916.166 -315.437,922.734 -315.399,929.301C-315.363,935.379 -315.318,941.458 -315.273,947.537C-315.17,961.358 -315.081,975.179 -315,989C-321.208,988.906 -327.415,988.8 -333.622,988.683C-335.729,988.645 -337.837,988.61 -339.944,988.578C-342.99,988.532 -346.036,988.474 -349.082,988.414C-350.01,988.403 -350.937,988.391 -351.893,988.379C-357.626,988.253 -363.037,987.585 -368.659,986.449C-371.444,985.915 -374.135,985.731 -376.969,985.691C-378.541,985.657 -378.541,985.657 -380.144,985.621C-381.252,985.602 -382.359,985.582 -383.5,985.563C-394.698,985.271 -405.786,984.516 -416.938,983.5C-427.123,982.574 -437.28,981.733 -447.505,981.36C-453.221,981.131 -458.878,980.66 -464.566,980.07C-477.613,978.775 -490.686,978.023 -503.771,977.247C-506.87,977.062 -509.968,976.873 -513.066,976.684C-514.008,976.629 -514.949,976.575 -515.92,976.519C-516.792,976.466 -517.665,976.412 -518.565,976.357C-519.709,976.29 -519.709,976.29 -520.876,976.221C-523,976 -523,976 -524.921,975.511C-535.03,973.028 -546.419,973.725 -556.813,973.438C-558.295,973.394 -559.777,973.351 -561.26,973.307C-564.84,973.201 -568.42,973.1 -572,973C-572.048,958.565 -572.082,944.129 -572.104,929.694C-572.114,922.984 -572.128,916.274 -572.151,909.564C-572.267,875.185 -571.755,840.907 -570.282,806.558C-570.235,805.481 -570.189,804.403 -570.142,803.292C-570.051,801.183 -569.959,799.075 -569.866,796.966C-569.169,781.031 -568.845,765.13 -568.826,749.18C-568.82,746.826 -568.813,744.472 -568.806,742.117C-568.792,737.101 -568.78,732.085 -568.77,727.068C-568.756,719.767 -568.735,712.466 -568.712,705.165C-568.674,693.246 -568.639,681.327 -568.607,669.408C-568.605,668.699 -568.603,667.99 -568.601,667.259C-568.575,657.24 -568.551,647.22 -568.528,637.201C-568.526,636.497 -568.525,635.794 -568.523,635.069C-568.522,634.367 -568.52,633.664 -568.518,632.94C-568.491,621.08 -568.457,609.219 -568.417,597.359C-568.394,590.746 -568.376,584.134 -568.366,577.521C-568.322,548.492 -567.823,519.575 -566.365,490.581C-564.986,462.838 -564.838,435.074 -564.77,407.302C-564.754,400.798 -564.73,394.294 -564.705,387.79C-564.64,370.459 -564.582,353.129 -564.533,335.798C-564.396,287.5 -564.194,239.216 -563.027,190.93C-563.006,190.039 -562.984,189.149 -562.962,188.231C-562.569,171.964 -562.135,155.701 -561.456,139.442C-560.885,125.628 -560.775,111.817 -560.684,97.992C-560.663,95.316 -560.642,92.641 -560.621,89.965C-560.571,83.722 -560.526,77.479 -560.483,71.236C-560.433,64.109 -560.378,56.981 -560.323,49.854C-560.21,35.236 -560.103,20.618 -560,6C-559.314,6.059 -558.627,6.118 -557.92,6.178C-554.775,6.447 -551.63,6.713 -548.485,6.979C-547.405,7.071 -546.325,7.164 -545.213,7.259C-537.428,7.915 -529.686,8.324 -521.875,8.5C-513.867,8.737 -506.109,9.147 -498.205,10.5C-486.401,12.342 -474.338,12.271 -462.416,12.477C-460.198,12.517 -457.98,12.568 -455.762,12.621C-453.812,12.659 -453.812,12.659 -451.823,12.697C-448.294,12.977 -445.258,13.613 -441.865,14.53C-430.298,17.446 -416.939,16.295 -405.049,16.477C-402.546,16.517 -400.042,16.568 -397.539,16.621C-396.785,16.63 -396.03,16.638 -395.253,16.647C-391.856,16.725 -389.118,16.964 -385.841,17.961C-374.243,21.098 -361.099,20.269 -349.125,20.563C-347.454,20.606 -345.784,20.649 -344.113,20.693C-340.076,20.799 -336.038,20.901 -332,21C-331.977,41.133 -331.959,61.265 -331.948,81.398C-331.943,90.747 -331.936,100.096 -331.925,109.444C-331.915,117.597 -331.908,125.749 -331.906,133.902C-331.905,138.215 -331.902,142.528 -331.894,146.841C-331.887,150.908 -331.885,154.976 -331.887,159.044C-331.887,160.529 -331.885,162.014 -331.881,163.499C-331.862,171.205 -332.021,178.832 -332.767,186.507C-333.1,190.074 -333.197,193.614 -333.281,197.195C-333.309,198.271 -333.309,198.271 -333.337,199.369C-333.395,201.621 -333.448,203.873 -333.5,206.125C-333.699,214.591 -333.919,223.033 -334.498,231.483C-335.328,245.27 -335.23,259.096 -335.303,272.903C-335.325,276.891 -335.353,280.878 -335.379,284.866C-335.429,292.388 -335.474,299.91 -335.517,307.431C-335.567,316.007 -335.622,324.583 -335.677,333.159C-335.79,350.773 -335.897,368.386 -336,386C-329.11,385.749 -322.22,385.492 -315.33,385.231C-312.995,385.144 -310.661,385.057 -308.327,384.972C-293.727,384.441 -279.18,383.707 -264.625,382.438C-263.838,382.369 -263.052,382.301 -262.241,382.23C-259.408,381.983 -256.574,381.734 -253.741,381.484C-240.174,380.302 -226.615,379.834 -213,380C-213.204,379.115 -213.408,378.23 -213.619,377.319C-215.751,367.498 -216.64,357.964 -217.063,347.938C-217.473,338.703 -218.11,329.701 -219.525,320.553C-220.507,313.206 -220.739,305.785 -221.104,298.386C-221.53,289.953 -222.274,281.691 -223.559,273.336C-224.404,266.944 -224.431,260.52 -224.566,254.082C-224.701,249.386 -224.911,244.941 -225.969,240.355C-227.66,232.73 -227.662,224.842 -228,217.063C-228.559,203.695 -228.559,203.695 -230.526,190.478C-232.451,180.423 -232.292,170.016 -232.563,159.813C-232.606,158.273 -232.649,156.733 -232.693,155.193C-232.799,151.462 -232.901,147.731 -233,144L-235,144C-235.763,139.875 -236.162,135.903 -236.281,131.711C-236.319,130.521 -236.356,129.331 -236.395,128.105C-236.429,126.874 -236.464,125.643 -236.5,124.375C-236.703,117.34 -236.924,110.311 -237.406,103.289C-237.471,102.34 -237.536,101.391 -237.604,100.413C-237.871,97.746 -237.871,97.746 -240,95C-240.258,93.13 -240.258,93.13 -240.271,91.007C-240.287,89.81 -240.287,89.81 -240.302,88.589C-240.304,87.729 -240.306,86.87 -240.309,85.984C-240.334,84.158 -240.359,82.331 -240.385,80.504C-240.413,77.629 -240.437,74.755 -240.456,71.88C-240.478,69.102 -240.518,66.325 -240.559,63.547C-240.559,62.27 -240.559,62.27 -240.559,60.967C-240.648,55.57 -241.817,51.995 -244,47C-244.243,44.207 -244.354,41.658 -244.293,38.879C-244.289,38.134 -244.284,37.389 -244.28,36.622C-244.263,34.268 -244.226,31.916 -244.188,29.563C-244.172,27.956 -244.159,26.35 -244.146,24.744C-244.114,20.829 -244.062,16.915 -244,13C-242.513,12.962 -242.513,12.962 -240.997,12.924C-218.868,12.397 -218.868,12.397 -196.75,11.563C-196.052,11.536 -195.353,11.509 -194.634,11.481C-191.354,11.311 -188.486,10.86 -185.309,9.996C-180.961,8.883 -176.854,8.703 -172.383,8.691C-170.721,8.668 -169.06,8.645 -167.398,8.621C-166.538,8.612 -165.678,8.603 -164.791,8.593C-152.409,8.45 -140.157,8.208 -127.875,6.5C-117.397,5.057 -107.058,4.681 -96.5,4.5C-84.08,4.287 -71.801,3.709 -59.438,2.5C-39.638,0.572 -19.898,-0.084 0,0Z" style="fill:rgb(49,58,37);fill-rule:nonzero;"/>
        </g>
        <g transform="matrix(1,0,0,1,2381,1296)">
            <path d="M0,0C5.556,-0.073 11.112,-0.13 16.669,-0.165C18.542,-0.179 20.416,-0.2 22.29,-0.226C33.893,-0.387 45.173,0.164 56.703,1.48C70.733,3.019 84.686,3.324 98.793,3.406C99.897,3.413 101.001,3.42 102.138,3.427C111.317,3.477 120.495,3.491 129.674,3.505C137.651,3.519 145.628,3.545 153.605,3.594C155.237,3.604 155.237,3.604 156.901,3.614C202.961,3.961 202.961,3.961 207,8C207.12,10.572 207.175,13.118 207.189,15.691C207.202,16.901 207.202,16.901 207.215,18.136C207.232,19.897 207.247,21.659 207.26,23.421C207.281,26.229 207.308,29.036 207.337,31.843C207.397,37.833 207.449,43.823 207.5,49.813C207.56,56.693 207.623,63.573 207.692,70.454C207.718,73.185 207.739,75.916 207.76,78.648C207.837,87.369 208.017,96.082 208.393,104.796C208.437,106.006 208.437,106.006 208.483,107.241C208.664,110.976 209.023,114.399 210.021,118.008C211.211,122.387 211.286,126.553 211.271,131.07C211.276,131.942 211.282,132.813 211.287,133.711C211.297,135.598 211.303,137.485 211.305,139.371C211.309,142.404 211.326,145.436 211.346,148.468C211.401,157.089 211.431,165.71 211.456,174.331C211.476,180.646 211.51,186.962 211.559,193.277C211.566,194.315 211.574,195.352 211.582,196.421C211.752,215.37 212.933,234.156 214.554,253.03C214.995,258.377 215.127,263.639 215,269L218,269C218.115,268.27 218.23,267.54 218.349,266.788C219.017,263.929 219.955,261.931 221.414,259.395C221.921,258.506 222.427,257.618 222.949,256.702C223.502,255.749 224.055,254.795 224.625,253.813C225.198,252.813 225.77,251.814 226.36,250.784C228.233,247.519 230.116,244.259 232,241C233.318,238.709 234.636,236.417 235.953,234.125C244.845,218.672 244.845,218.672 248.79,211.951C252.139,206.245 255.391,200.503 258.539,194.685C260.97,190.217 263.488,185.798 266,181.375C269.606,175.018 273.198,168.655 276.746,162.266C277.363,161.157 277.98,160.047 278.615,158.905C279.798,156.776 280.978,154.646 282.154,152.513C285.12,147.181 288.246,142.071 291.68,137.029C293.57,134.124 295.028,131.072 296.5,127.938C301.49,117.621 307.425,107.854 313.244,97.991C315.885,93.493 318.479,88.969 321.063,84.438C321.547,83.588 322.031,82.739 322.53,81.865C326.202,75.418 329.852,68.96 333.5,62.5C350.743,31.969 350.743,31.969 358.117,19.853C360.017,16.711 361.784,13.558 363.375,10.25C365.666,5.668 365.666,5.668 368,4C371.293,3.602 371.293,3.602 375.188,3.625C376.46,3.617 377.732,3.61 379.043,3.602C383,4 383,4 386.52,5.492C392.803,8.067 399.812,7.464 406.5,7.5C409.24,7.515 411.979,7.549 414.719,7.594C415.925,7.601 417.131,7.608 418.373,7.615C421.409,7.937 423.199,8.369 425.939,9.484C430.086,11.164 433.819,11.522 438.262,11.66C439.015,11.696 439.769,11.731 440.546,11.767C442.926,11.878 445.306,11.972 447.688,12.063C450.079,12.158 452.47,12.258 454.862,12.368C456.341,12.436 457.822,12.496 459.302,12.545C463.321,12.725 466.316,13.473 470,15C472.878,15.315 472.878,15.315 475.938,15.309C477.081,15.334 478.224,15.359 479.402,15.385C481.769,15.419 484.137,15.451 486.504,15.479C492.307,15.611 497.612,16.014 503.242,17.469C511.463,19.551 519.689,19.736 528.125,20.063C546.134,20.796 546.134,20.796 554.705,22.565C558.027,23.195 561.312,23.283 564.688,23.375C575.929,23.827 586.952,25.992 598,28C597.39,30.873 596.515,33.108 595.023,35.633C594.4,36.698 594.4,36.698 593.764,37.784C593.306,38.556 592.847,39.329 592.375,40.125C591.368,41.842 590.362,43.56 589.355,45.277C588.813,46.2 588.271,47.123 587.712,48.074C584.676,53.262 581.686,58.477 578.688,63.688C571.503,76.151 564.259,88.58 557,101C554.541,105.208 552.082,109.416 549.625,113.625C549.036,114.634 548.446,115.644 547.839,116.684C544.761,121.961 541.705,127.25 538.688,132.563C534.045,140.725 529.188,148.758 524.309,156.781C521.848,160.841 519.477,164.925 517.227,169.105C514.117,174.826 510.861,180.45 507.563,186.063C502.4,194.875 497.279,203.709 492.188,212.563C487.815,220.162 483.398,227.727 478.854,235.226C476.338,239.393 473.995,243.631 471.691,247.918C468.134,254.4 464.365,260.763 460.649,267.156C458.218,271.349 455.8,275.55 453.381,279.75C448.104,288.913 442.806,298.06 437.421,307.159C434.757,311.675 432.175,316.232 429.625,320.813C425.747,327.777 421.652,334.599 417.523,341.417C413.676,347.8 410.032,354.277 406.455,360.815C403.638,365.935 400.629,370.88 397.375,375.738C395.906,378.006 395.906,378.006 394.938,380.73C394,383 394,383 392,384C392.566,387.818 394.185,389.556 396.883,392.244C397.719,393.083 398.554,393.923 399.415,394.788C400.8,396.158 400.8,396.158 402.214,397.554C403.192,398.531 404.169,399.509 405.146,400.488C407.8,403.143 410.464,405.789 413.13,408.434C415.919,411.205 418.701,413.984 421.483,416.763C426.758,422.029 432.042,427.288 437.328,432.544C443.324,438.507 449.312,444.479 455.3,450.451C465.541,460.666 475.788,470.875 486.043,481.076C486.89,481.919 487.737,482.761 488.609,483.629C489.382,484.398 490.155,485.167 490.951,485.959C492.637,487.638 494.318,489.323 495.996,491.011C497.702,492.704 499.418,494.214 501.313,495.688C502.199,496.451 503.086,497.214 504,498L504,500C505.32,500.66 506.64,501.32 508,502L508,504C508.99,504.33 509.98,504.66 511,505C512.648,506.707 512.648,506.707 514.375,508.813C516.47,511.32 518.1,513.069 520.813,514.938C524.151,518.085 524.25,521.609 525,526C525.351,527.176 525.701,528.351 526.063,529.563C527.128,533.644 527.249,537.744 527.438,541.938C527.678,547.209 528.343,551.617 530.309,556.516C531.471,560.692 531.5,565.016 531.621,569.33C531.763,573.357 532.409,576.326 534,580C535.114,585.257 535.306,590.55 535.518,595.902C535.732,600.104 536.415,603.865 537.512,607.92C538.573,612.441 538.808,617.111 539.211,621.729C539.581,625.523 539.849,627.773 542,631C542.363,633.357 542.363,633.357 542.527,636.113C542.598,637.114 542.668,638.115 542.74,639.146C542.871,641.245 542.999,643.344 543.123,645.443C543.528,651.135 544.328,654.907 547,660C547.599,663.127 547.828,666.265 548.063,669.438C548.22,671.231 548.378,673.024 548.539,674.816C548.615,675.697 548.692,676.578 548.771,677.485C549.824,689.035 551.32,700.961 555,712C555.201,713.613 555.364,715.232 555.5,716.852C555.583,717.785 555.665,718.718 555.75,719.68C555.917,721.651 556.084,723.622 556.25,725.594C556.333,726.524 556.415,727.455 556.5,728.414C556.572,729.27 556.644,730.125 556.719,731.006C556.796,732.996 556.796,732.996 558,734C558.41,736.567 558.764,739.121 559.086,741.699C559.297,743.318 559.508,744.938 559.719,746.557C560.045,749.101 560.37,751.646 560.692,754.191C561.88,763.508 563.248,772.647 565.326,781.817C566.381,786.8 566.979,791.819 567.563,796.875C568.439,804.633 568.439,804.633 570.059,812.258C571.253,817.004 571.435,821.566 571.656,826.438C571.972,829.706 572.664,832.658 573.51,835.822C574.623,840.769 574.814,845.885 575.211,850.93C575.286,851.783 575.36,852.636 575.438,853.516C575.498,854.282 575.559,855.048 575.621,855.837C575.893,858.029 575.893,858.029 576.996,859.914C578.289,862.6 578.421,864.891 578.633,867.859C578.717,868.974 578.8,870.089 578.887,871.238C579.005,872.977 579.005,872.977 579.125,874.75C579.211,875.924 579.298,877.099 579.387,878.309C579.599,881.205 579.803,884.102 580,887L582,887C582.05,887.676 582.1,888.352 582.152,889.048C582.384,892.116 582.629,895.183 582.875,898.25C582.954,899.313 583.032,900.377 583.113,901.473C583.197,902.497 583.281,903.522 583.367,904.578C583.441,905.521 583.514,906.463 583.589,907.435C583.866,909.989 583.866,909.989 585.027,912.041C586.215,914.434 586.229,916.105 586.195,918.766C586.189,919.655 586.182,920.545 586.176,921.461C586.159,922.381 586.142,923.302 586.125,924.25C586.111,925.654 586.111,925.654 586.098,927.086C586.074,929.391 586.041,931.695 586,934C580.199,936.9 572.319,936.089 565.973,936.211C565.253,936.225 564.533,936.24 563.792,936.254C560.797,936.312 557.802,936.366 554.807,936.401C546.779,936.503 539.486,936.881 531.764,939.314C526.084,940.724 520.198,940.541 514.375,940.625C501.37,940.12 501.37,940.12 489,943C486.672,943.144 484.34,943.227 482.008,943.281C481.307,943.3 480.605,943.318 479.883,943.337C477.63,943.396 475.378,943.448 473.125,943.5C456.284,942.68 456.284,942.68 441,947C433.599,948.338 426.063,948.295 418.563,948.5C405.193,948.365 405.193,948.365 392.238,951.023C388.506,952.149 385.086,952.271 381.23,952.23C380.509,952.23 379.787,952.23 379.044,952.229C377.53,952.226 376.017,952.218 374.503,952.206C372.177,952.187 369.851,952.185 367.525,952.186C366.052,952.181 364.579,952.175 363.105,952.168C362.408,952.167 361.71,952.166 360.991,952.165C356.116,952.116 356.116,952.116 355,951C354.488,948.626 354.038,946.267 353.625,943.875C353.43,942.761 353.43,942.761 353.231,941.625C351.969,934.206 351.003,926.753 350.09,919.285C349.287,912.806 348.214,906.414 347,900C345.096,889.605 343.582,879.265 342.734,868.725C342.439,865.306 342.122,862.353 341,859.094C339.258,853.703 339.244,848.034 338.877,842.406C338.518,837.723 337.96,833.486 336.5,829.012C334.726,823.57 334.303,818.251 333.938,812.563C333.809,810.626 333.672,808.69 333.527,806.754C333.473,805.912 333.419,805.069 333.363,804.201C333.108,801.716 333.108,801.716 331,799C330.697,796.795 330.697,796.795 330.621,794.254C330.587,793.334 330.553,792.414 330.518,791.467C330.491,790.508 330.465,789.55 330.438,788.563C330.377,786.668 330.314,784.773 330.246,782.879C330.222,782.039 330.198,781.199 330.174,780.334C330.006,778.081 329.741,776.136 329,774C328.34,773.67 327.68,773.34 327,773C326.985,772.345 326.971,771.69 326.956,771.016C326.881,768.01 326.784,765.005 326.688,762C326.665,760.97 326.642,759.94 326.619,758.879C326.428,753.414 325.87,749.146 323.715,744.14C322.157,739.477 322.174,734.437 321.875,729.563C321.73,727.397 321.582,725.231 321.43,723.066C321.341,721.642 321.341,721.642 321.25,720.19C321.233,718.026 321.233,718.026 320,717C319.809,715.559 319.677,714.11 319.57,712.66C319.46,711.311 319.46,711.311 319.348,709.936C319.202,708.056 319.061,706.176 318.926,704.295C318.455,698.662 317.401,693.708 315.66,688.338C314.671,684.836 314.588,681.641 314.5,678C314.329,673.503 314.035,669.392 312.5,665.125C310.585,659.692 310.618,654.297 310.414,648.599C310.195,643.551 309.398,639.379 307.688,634.609C306.773,631.138 306.646,627.694 306.5,624.125C306.252,618.079 305.363,612.617 303.652,606.809C302.962,603.836 303,601.291 303.063,598.25C302.809,594.498 302.42,593.38 299.59,590.816C297.49,589.455 295.353,588.149 293.188,586.895C290.237,585.141 287.982,583.349 285.5,581C275.063,571.524 267.131,567.816 253.063,568.125C250.324,568.143 247.586,568.139 244.848,568.133C244.162,568.135 243.477,568.137 242.771,568.139C233.473,568.099 224.234,567.012 215,566C215.221,573.123 215.447,580.246 215.679,587.368C215.786,590.68 215.892,593.991 215.995,597.303C216.114,601.159 216.239,605.015 216.367,608.871C216.389,609.535 216.411,610.199 216.434,610.883C216.673,617.961 216.973,625.026 217.497,632.091C218.878,650.79 219.247,669.433 219.379,688.18C219.386,689.196 219.386,689.196 219.393,690.233C219.456,699.345 219.501,708.458 219.543,717.57C219.591,728.273 219.651,738.975 219.718,749.678C219.747,754.299 219.767,758.921 219.786,763.542C219.799,765.961 219.813,768.381 219.826,770.8C219.83,772.416 219.83,772.416 219.834,774.065C219.874,779.965 220.165,785.768 220.769,791.638C221.09,794.922 221.196,798.198 221.281,801.496C221.337,803.446 221.337,803.446 221.395,805.436C221.448,807.452 221.501,809.469 221.552,811.485C221.604,813.468 221.661,815.451 221.719,817.434C221.749,818.599 221.779,819.765 221.811,820.967C221.874,823.806 221.874,823.806 222.499,825.684C223.245,829.132 223.179,832.581 223.205,836.094C223.215,836.909 223.225,837.725 223.235,838.566C223.267,841.282 223.292,843.998 223.316,846.715C223.337,848.642 223.358,850.568 223.379,852.495C223.423,856.566 223.464,860.638 223.503,864.709C223.551,869.78 223.604,874.851 223.661,879.921C223.969,907.948 224.058,935.972 224,964C185.041,964.303 185.041,964.303 167.395,962.811C159.945,962.194 152.514,961.737 145.043,961.488C143.841,961.448 142.638,961.407 141.4,961.365C128.466,960.951 115.528,960.771 102.59,960.57C100.258,960.533 97.926,960.497 95.595,960.46C81.144,960.232 81.144,960.232 66.693,960.026C60.72,959.945 54.747,959.851 48.774,959.75C46.552,959.715 44.329,959.683 42.106,959.657C22.314,959.419 2.699,957.804 -17,956C-17.047,935.831 -17.082,915.662 -17.104,895.493C-17.114,886.126 -17.128,876.758 -17.151,867.391C-17.171,859.214 -17.184,851.037 -17.188,842.859C-17.191,838.541 -17.197,834.223 -17.211,829.904C-17.264,813.913 -17.252,798.036 -15.776,782.097C-13.739,759.878 -13.851,737.483 -13.77,715.186C-13.754,710.78 -13.73,706.374 -13.705,701.968C-13.64,690.247 -13.581,678.526 -13.533,666.805C-13.187,582.919 -13.187,582.919 -10.478,564.436C-9.733,558.586 -9.847,552.713 -9.842,546.825C-9.834,544.814 -9.827,542.803 -9.819,540.792C-9.811,538.635 -9.806,536.477 -9.801,534.32C-9.79,529.749 -9.77,525.179 -9.748,520.608C-9.686,507.609 -9.633,494.61 -9.599,481.61C-9.573,472.1 -9.533,462.589 -9.477,453.078C-9.472,452.29 -9.467,451.502 -9.462,450.69C-9.32,427.566 -8.603,404.559 -7.287,381.468C-5.72,353.804 -5.514,326.176 -5.447,298.473C-5.418,286.933 -5.372,275.392 -5.309,263.852C-5.302,262.604 -5.295,261.357 -5.288,260.071C-5.116,231.424 -4.1,202.811 -2.722,174.198C-1.995,158.699 -1.806,143.216 -1.73,127.702C-1.711,124.142 -1.687,120.582 -1.663,117.022C-1.604,108.015 -1.551,99.007 -1.5,90C-1.444,80.265 -1.387,70.53 -1.322,60.794C-1.299,57.28 -1.278,53.765 -1.26,50.25C-1.178,33.478 -0.85,16.751 0,0Z" style="fill:rgb(50,59,37);fill-rule:nonzero;"/>
        </g>
        <g transform="matrix(1,0,0,1,3069,1296)">
            <path d="M0,0C7.288,-0.061 14.575,-0.118 21.863,-0.146C26.361,-0.164 30.859,-0.184 35.357,-0.226C51.324,-0.372 67.122,-0.131 83.035,1.259C109.984,3.612 136.948,3.561 163.983,3.67C170.103,3.696 176.224,3.737 182.344,3.778C196.229,3.869 210.114,3.941 224,4C225.002,11.664 225.572,19.316 226.027,27.031C226.071,27.778 226.116,28.524 226.161,29.294C227.348,49.984 227.411,70.694 227.543,91.413C227.596,99.652 227.66,107.891 227.731,116.13C227.754,118.981 227.77,121.832 227.786,124.683C227.799,126.409 227.813,128.135 227.826,129.861C227.83,131.039 227.83,131.039 227.834,132.241C227.865,135.422 227.987,137.96 229,141C231.394,161.181 231.049,181.903 231.246,202.207C231.259,203.459 231.259,203.459 231.271,204.736C231.349,212.508 231.419,220.279 231.477,228.051C231.624,254.054 231.624,254.054 233.485,279.979C234.696,291.407 235.155,302.775 235.23,314.257C235.247,316.754 235.27,319.251 235.295,321.748C235.364,328.84 235.424,335.932 235.477,343.024C235.617,361.49 235.914,379.88 237.138,398.308C238.231,414.905 238.407,431.492 238.543,448.12C238.602,455.236 238.677,462.353 238.754,469.469C238.762,470.236 238.77,471.003 238.779,471.794C238.901,482.827 239.098,493.856 239.402,504.885C239.444,506.387 239.484,507.889 239.522,509.391C239.576,511.457 239.636,513.522 239.699,515.588C239.733,516.758 239.767,517.928 239.802,519.133C239.885,522.071 239.885,522.071 241,525C243.458,542.874 243.327,561.06 243.464,579.067C243.523,586.761 243.619,594.455 243.719,602.148C243.733,603.295 243.733,603.295 243.748,604.465C243.938,618.882 244.37,633.282 245,647.688C245.042,648.667 245.084,649.646 245.127,650.655C245.247,653.399 245.372,656.143 245.5,658.887C245.535,659.658 245.571,660.428 245.607,661.223C245.802,665.125 246.101,668.989 246.516,672.874C247.217,680.377 247.186,687.891 247.23,695.421C247.247,698.2 247.27,700.978 247.295,703.756C247.365,711.651 247.424,719.546 247.477,727.442C247.454,766.547 247.454,766.547 250.547,805.497C251.222,811.209 251.203,816.945 251.26,822.691C251.282,824.839 251.309,826.987 251.337,829.135C251.386,832.964 251.431,836.793 251.474,840.622C251.898,885.747 251.898,885.747 254.063,930.813C254.684,940.395 255.187,949.957 255.188,959.563C255.189,960.857 255.189,960.857 255.19,962.177C255.137,967.863 255.137,967.863 254,969C252.593,969.097 251.18,969.124 249.77,969.123C248.851,969.125 247.933,969.127 246.987,969.129C245.967,969.126 244.947,969.123 243.895,969.12C242.82,969.121 241.746,969.122 240.638,969.123C237.007,969.125 233.375,969.119 229.744,969.114C227.153,969.113 224.561,969.113 221.97,969.114C216.376,969.114 210.782,969.111 205.188,969.106C197.099,969.098 189.011,969.095 180.923,969.094C167.802,969.092 154.68,969.085 141.559,969.075C128.809,969.066 116.06,969.059 103.311,969.055C102.525,969.055 101.74,969.054 100.931,969.054C96.992,969.053 93.052,969.052 89.112,969.05C56.408,969.04 23.704,969.022 -9,969C-9.024,945.689 -9.041,922.378 -9.052,899.067C-9.057,888.235 -9.064,877.404 -9.075,866.572C-9.162,783.523 -9.162,783.523 -8.621,747.914C-8.606,746.801 -8.591,745.687 -8.575,744.54C-8.407,732.875 -8.074,721.226 -7.528,709.573C-6.13,679.526 -5.674,649.546 -5.628,619.467C-5.617,613.567 -5.597,607.667 -5.577,601.767C-5.536,590.054 -5.504,578.34 -5.477,566.627C-5.451,555.441 -5.424,544.254 -5.393,533.068C-5.391,532.38 -5.389,531.692 -5.387,530.984C-5.366,523.389 -5.344,515.795 -5.32,508.201C-5.318,507.523 -5.316,506.845 -5.314,506.147C-5.305,503.428 -5.297,500.71 -5.288,497.992C-5.262,489.61 -5.239,481.228 -5.222,472.846C-5.166,446.434 -4.97,420.028 -4.547,393.62C-4.528,392.377 -4.509,391.135 -4.489,389.855C-4.265,375.656 -3.902,361.472 -3.367,347.282C-2.925,335.398 -2.666,323.513 -2.455,311.624C-2.434,310.481 -2.413,309.339 -2.392,308.163C-1.939,282.973 -1.802,257.785 -1.73,232.592C-1.711,226.425 -1.687,220.258 -1.663,214.091C-1.599,197.208 -1.543,180.324 -1.487,163.44C-1.435,147.908 -1.382,132.375 -1.322,116.843C-1.299,110.771 -1.278,104.699 -1.26,98.628C-1.166,65.743 -0.732,32.877 0,0Z" style="fill:rgb(49,59,36);fill-rule:nonzero;"/>
        </g>
        <g transform="matrix(1,0,0,1,3440,1296)">
            <path d="M0,0C7.965,-0.047 15.929,-0.082 23.894,-0.104C27.595,-0.114 31.296,-0.128 34.997,-0.151C51.295,-0.25 67.326,0.033 83.553,1.76C100.216,3.396 117.043,3.204 133.766,3.316C136.383,3.337 139,3.358 141.617,3.379C147.743,3.429 153.869,3.474 159.996,3.517C166.985,3.567 173.974,3.622 180.964,3.677C195.309,3.79 209.655,3.897 224,4C224.015,4.84 224.015,4.84 224.031,5.697C224.14,11.587 224.255,17.477 224.372,23.366C224.415,25.557 224.457,27.748 224.497,29.939C224.768,45.745 224.768,45.745 225.779,61.516C226.064,64.716 226.189,67.91 226.281,71.121C226.337,72.926 226.337,72.926 226.395,74.768C226.429,75.979 226.464,77.19 226.5,78.438C226.57,80.874 226.643,83.31 226.719,85.746C226.749,86.805 226.779,87.864 226.811,88.955C226.946,92.497 227.229,96.024 227.502,99.558C228.032,106.817 228.185,114.045 228.246,121.32C228.261,122.66 228.276,123.999 228.292,125.338C228.326,128.152 228.358,130.966 228.388,133.78C228.617,154.421 228.873,175.038 230.237,195.642C230.829,204.666 231.266,213.682 231.539,222.723C231.57,223.73 231.57,223.73 231.602,224.758C231.939,235.783 232.112,246.806 232.211,257.836C232.225,259.368 232.24,260.9 232.254,262.432C232.312,268.612 232.367,274.793 232.401,280.973C232.505,298.862 233.08,316.594 234.504,334.43C236.237,356.216 236.484,377.939 236.553,399.786C236.578,407.724 236.619,415.662 236.675,423.6C236.691,426.303 236.695,429.007 236.698,431.71C236.74,441.549 237.302,451.215 238.276,461.006C239.025,468.71 239.307,476.348 239.336,484.085C239.344,486.369 239.365,488.654 239.388,490.938C239.435,495.813 239.469,500.688 239.5,505.563C239.628,525.179 239.891,544.749 240.969,564.34C241.011,565.122 241.054,565.903 241.098,566.709C241.496,573.85 241.919,580.973 242.78,588.077C244.977,607.292 244.294,626.994 244.5,646.313C244.657,679.076 244.657,679.076 246.49,711.773C248.169,730.914 248.401,749.979 248.543,769.18C248.602,776.981 248.676,784.781 248.754,792.582C248.766,793.834 248.766,793.834 248.779,795.111C248.893,806.311 249.095,817.504 249.465,828.699C249.521,830.479 249.521,830.479 249.579,832.295C249.638,833.922 249.638,833.922 249.699,835.581C249.733,836.514 249.767,837.447 249.802,838.408C249.944,840.991 249.944,840.991 250.506,843.446C251.083,846.428 251.162,849.239 251.205,852.276C251.225,853.532 251.245,854.789 251.266,856.083C251.283,857.464 251.3,858.846 251.316,860.227C251.337,861.689 251.358,863.152 251.379,864.614C251.423,867.713 251.464,870.811 251.503,873.91C251.541,876.971 251.582,880.032 251.628,883.093C252.047,911.399 252,939.685 252,968L-11,968C-11,952.173 -11,952.173 -10.257,945.018C-9.663,938.041 -9.608,931.023 -9.453,924.026C-9.432,923.117 -9.411,922.208 -9.39,921.272C-8.775,893.737 -8.811,866.194 -8.766,838.654C-8.753,830.644 -8.733,822.635 -8.712,814.626C-8.674,800.288 -8.639,785.949 -8.607,771.611C-8.605,770.76 -8.603,769.909 -8.601,769.032C-8.575,756.98 -8.551,744.927 -8.528,732.874C-8.526,732.025 -8.525,731.176 -8.523,730.302C-8.521,729.031 -8.521,729.031 -8.518,727.734C-8.491,713.442 -8.457,699.15 -8.417,684.858C-8.394,676.897 -8.376,668.936 -8.366,660.975C-8.32,623.678 -7.742,586.481 -5.86,549.223C-5.014,532.352 -4.841,515.501 -4.829,498.612C-4.825,494.765 -4.815,490.918 -4.806,487.072C-4.791,480.431 -4.78,473.79 -4.77,467.149C-4.756,457.521 -4.735,447.893 -4.712,438.264C-4.674,422.6 -4.639,406.936 -4.607,391.271C-4.605,390.337 -4.603,389.403 -4.601,388.441C-4.575,375.19 -4.551,361.939 -4.528,348.688C-4.526,347.755 -4.525,346.821 -4.523,345.859C-4.522,344.927 -4.52,343.994 -4.518,343.034C-4.491,327.422 -4.457,311.81 -4.417,296.198C-4.392,286.607 -4.374,277.017 -4.363,267.426C-4.356,260.844 -4.341,254.263 -4.321,247.681C-4.31,243.901 -4.302,240.12 -4.302,236.34C-4.302,219.716 -3.758,203.28 -2.238,186.719C-1.131,174.067 -0.843,161.412 -0.795,148.718C-0.785,147.08 -0.775,145.442 -0.765,143.804C-0.738,139.421 -0.717,135.038 -0.697,130.655C-0.675,126.05 -0.647,121.446 -0.621,116.842C-0.571,108.151 -0.526,99.461 -0.483,90.77C-0.433,80.864 -0.378,70.958 -0.323,61.052C-0.21,40.702 -0.103,20.351 0,0Z" style="fill:rgb(49,59,36);fill-rule:nonzero;"/>
        </g>
        <g transform="matrix(0.942792,0,0,0.942792,1087.88,1282.95)">
            <path d="M12.737,0.934L15.02,1.086C23.526,1.788 35.197,7.144 41.428,8.321C43.549,8.883 43.549,8.883 46.549,10.883L65.549,16.883L65.549,18.883L67.237,19.293C72.918,20.896 76.505,23.148 80.725,27.262C82.572,28.904 84.3,29.885 86.549,30.883L86.549,32.883L88.284,33.637C90.884,35.067 92.697,36.73 94.799,38.821L96.94,40.91C98.549,42.883 98.549,42.883 98.549,45.883L101.237,46.008C105.807,47.215 106.885,49.044 109.549,52.883L109.549,54.883L111.549,54.883C118.868,62.508 118.615,62.593 120.549,63.883L120.549,66.883L122.549,66.883L123.362,69.821L124.549,72.883L127.549,73.883L127.549,75.883L129.549,75.883C130.378,77.455 129.432,77.816 138.112,96.383C141.652,105.004 141.86,113.327 141.799,122.571L141.823,126.198L141.815,129.707L141.808,132.866C141.528,136.13 140.699,138.826 139.549,141.883L137.549,141.883L137.549,147.883L135.549,147.883L135.174,151.508C134.266,158.437 131.724,163.442 128.081,169.336C126.022,172.761 124.282,176.284 122.549,179.883L120.549,179.883L119.862,181.821C114.252,194.91 111.575,193.257 106.112,206.321C101.22,217.474 96.483,215.081 87.549,241.883L84.549,241.883L84.034,244.664C82.392,252.976 80.381,259.308 75.924,266.508C74.36,269.21 73.451,271.902 72.549,274.883L70.549,274.883L69.702,278.715C64.388,302.665 63.718,302.387 60.859,326.888C60.549,328.883 60.549,328.883 59.549,331.883C58.158,343.698 58.267,355.692 58.237,367.571L58.228,370.63C58.218,386.204 58.928,401.626 60.362,417.133L60.613,419.962C60.851,422.589 61.111,425.213 61.381,427.836L61.6,430.187C62.03,434.283 62.03,434.283 64.09,437.745L65.549,438.883C66.061,441.145 66.061,441.145 66.237,443.571L66.436,446.02L66.549,447.883L68.549,447.883C69.222,449.819 69.887,451.757 70.549,453.696L71.674,456.965C72.549,459.883 72.549,459.883 72.549,462.883L74.549,462.883L75.354,465.989L76.424,470.071L76.952,472.112C77.93,475.826 79.124,479.323 80.549,482.883L80.987,486.446C81.569,490.004 82.384,491.153 84.549,493.883L84.549,497.883L86.549,497.883L86.549,501.883L88.549,501.883C98.815,512.675 94.773,515.706 105.549,525.883C106.737,528.383 109.549,535.883 109.549,535.883L111.549,535.883C113.065,538.187 114.444,540.486 115.799,542.883L118.506,547.582L119.985,550.166L135.549,576.883L137.119,579.602C138.679,582.319 153.632,608.371 154.73,614.589C157.481,630.172 157.471,630.138 157.487,630.172C166.048,652.015 161.231,677.861 152.323,698.76C147.437,709.453 142.172,719.867 134.549,728.883L132.479,731.403C120.764,745.071 105.648,756.047 88.549,761.883L85.377,763.086C39.505,779.712 -63.275,773.514 -75.451,771.883C-77.254,771.676 -79.057,771.473 -80.861,771.278C-98.545,769.149 -116.347,764.615 -132.451,756.883L-134.339,756.005C-142.752,752.08 -150.457,748.085 -157.451,741.883L-159.896,739.797C-172.726,728.615 -182.728,715.441 -191.451,700.883L-193.009,698.438C-205.12,677.363 -208.226,644.381 -202.646,620.778C-195.569,596.494 -179.124,574.67 -162.922,555.637L-146.201,534.696C-142.182,529.675 -138.79,524.372 -135.451,518.883L-133.294,515.414C-117.133,489.2 -118.537,488.616 -106.513,460.258C-101.497,447.925 -103.172,447.58 -98.4,435.145C-96.905,430.006 -96.471,424.755 -95.888,419.446L-95.134,412.824L-94.808,409.877C-94.555,407.76 -94.256,405.649 -93.923,403.543C-93.397,399.464 -93.253,395.49 -93.212,391.383L-93.183,388.909C-92.882,357.086 -94.257,325.539 -103.451,294.883C-107.101,282.004 -106.461,281.884 -112.451,269.883C-119.874,251.291 -121.231,251.925 -123.138,245.508C-127.073,233.089 -154.852,190.681 -158.451,183.883L-163.451,174.883L-164.509,172.969C-167.056,168.153 -168.723,163.208 -170.384,158.028C-171.448,154.892 -172.658,151.869 -173.951,148.821L-175.212,145.778C-175.98,143.983 -176.788,142.205 -177.658,140.457C-182.737,129.203 -182.278,112.689 -178.681,100.989C-169.436,77.656 -155.997,56.436 -136.888,39.946C-134.235,37.622 -131.991,35.514 -130.138,32.508C-128.413,29.825 -127.407,28.939 -124.451,27.883L-124.451,25.883C-120.928,23.261 -117.522,21.466 -113.451,19.883L-111.451,17.883C-104.206,14.865 -103.814,15.579 -101.451,12.883C-94.75,11.228 -94.295,12.78 -88.451,8.883C-47.259,-5.948 9.274,0.668 12.737,0.934ZM-132.451,581.883C-142.754,586.363 -149.492,594.775 -154.341,604.707C-159.494,616.554 -160.655,630.184 -156.138,642.446C-154.187,646.421 -152.544,650.127 -148.201,651.696L-146.451,651.883L-146.451,653.883C-145.129,654.259 -143.792,654.584 -142.451,654.883C-135.889,655.406 -130.368,653.27 -125.357,649.078C-122.3,643.954 -122.3,643.954 -123.197,628.707C-123.452,625.535 -123.475,623.957 -122.451,620.883C-114.386,623.846 -109.052,628.696 -103.872,635.49L-102.388,637.508C-100.354,640.265 -98.365,643.042 -96.451,645.883C-92.33,652.526 -88.664,658.918 -90.451,666.883C-93.686,678.02 -103.01,683.555 -112.701,688.883C-117.426,691.335 -122.021,694.032 -126.701,696.571C-129.928,698.321 -133.06,700.272 -136.421,701.749C-139.228,702.906 -141.277,703.709 -143.451,705.883C-143.838,709.562 -143.287,711.722 -141.451,714.883C-130.362,728.019 -114.706,735.106 -97.792,736.669L-95.451,736.883C-60.115,740.286 28.385,738.786 37.164,738.296L41.155,738.055C58.536,737.056 75.078,732.903 89.549,722.883C93.473,719.643 98.115,716.542 98.971,711.297C98.549,708.883 98.549,708.883 97.37,707.34L95.549,705.883C86.672,698.242 77.59,691.963 67.362,686.321C63.424,684.205 59.658,682.106 56.178,679.281C52.062,675.526 50.684,672.557 50.237,667.008C50.611,658.438 53.328,649.329 59.237,643.008L61.549,640.883C62.192,637.803 62.192,637.803 64.374,636.918C66.648,635.836 71.869,628.736 81.549,627.883C81.545,630.345 81.565,632.803 81.612,635.264L81.674,638.321C81.661,643.385 81.647,647.927 83.798,652.59C85.708,655.64 87,658.404 90.57,659.509C94.357,659.62 97.366,658.839 100.549,656.883C108.467,648.791 110.991,637.932 111.858,626.989C112.113,612.907 106.552,603.141 97.174,592.946C89.592,586.15 82.279,583.21 72.111,583.095C-35.111,584.364 -124.052,579.165 -132.451,581.883Z" style="fill:rgb(43,52,31);"/>
        </g>
        <g transform="matrix(0.942792,0,0,0.942792,799.906,1518.54)">
            <path d="M0,0L6,0C6.236,1.059 15.01,68.194 15.785,74.125C18.526,95.093 27.164,141.545 27.281,142.082C33.22,170.024 30.993,200.377 28.075,228.622C22.38,284.271 25.833,284.369 21,340L19,340C18.945,349.734 18.508,427.319 20.324,461.676C20.365,462.177 25.802,504.455 26.125,509.625C25.934,521.65 25.934,521.65 30,532C30.384,533.504 30.555,535.058 30.938,536.563C31.962,540.593 32.84,544.675 34.219,548.598C35.101,551.311 35.774,554.038 36.438,556.813C37.23,560.006 44.275,588.403 54,594C56.091,599.298 57.382,600.359 57.863,600.754C58.64,601.571 60.465,603.488 64.828,613.004C66,616 66,616 66,619C66.99,619.33 67.98,619.66 69,620C69.809,621.672 69.809,621.672 70.438,623.75C71.391,626.572 72.071,628.086 74,630.438C75.934,632.915 76.476,634.252 77.313,637.188C78.762,641.952 81.224,645.396 84.156,649.379C84.999,650.577 87.654,654.351 93.168,665.324C97.084,677.92 89.95,698.288 89,701C87.515,707.125 86.107,713.289 85.438,719.563C85.023,722.816 84.225,724.994 83,728C82.101,730.93 76.032,750.721 74.398,765.332C73.858,768.954 72.692,771.771 71,775L69,775L67,782L65,782C64.598,782.897 64.598,782.897 64.188,783.813C61.429,788.894 49.266,794.849 47.818,795.558C37.305,799.42 -207.988,796.463 -228,795L-228,793C-228.66,792.918 -229.32,792.835 -230,792.75C-235.377,791.406 -239.636,789.469 -243.438,785.375C-247.354,776.915 -247.132,764.695 -244.332,755.902C-243.568,754.262 -242.784,752.631 -242,751C-239.627,740.319 -35.416,116.705 -28.749,92.859C-27.379,88.048 -25.238,83.482 -23.813,78.688C-22.169,73.158 -20.314,67.632 -19.551,61.914C-18.718,57.508 -16.977,53.55 -15.289,49.41C-13.488,44.645 -12.293,39.775 -11.035,34.844C-6.281,17.189 -4.911,17.754 0,0Z" style="fill:rgb(42,54,31);fill-rule:nonzero;"/>
        </g>
        <g transform="matrix(0.942792,0,0,0.942792,1342.01,1511)">
            <path d="M0,0C7.926,5.226 14.309,16.93 17,26C17.559,29.665 17.862,33.296 18,37L20,37C21.745,42.234 260.313,744.07 260.656,748.984C260.912,751.309 260.912,751.309 263,754C266.023,762.737 268.219,772.905 264.969,781.832C261.548,788.169 257.104,791.438 251,795C248.135,797.214 248.514,798 245,798L245,800C221.243,803.33 -22.224,803.923 -32,800C-32.495,798.515 -32.495,798.515 -33,797C-34.828,796.368 -34.828,796.368 -37,796L-43.977,793.23C-46.379,791.77 -46.884,790.524 -48,788C-48.66,787.67 -49.32,787.34 -50,787L-50,785L-53,785L-53,782C-53.99,781.67 -54.98,781.34 -56,781C-62.663,771.44 -60.994,770.616 -67.73,760.98C-70.99,755.895 -69.094,745.002 -73,740C-73.709,734.77 -73.414,732.009 -70.313,727.688C-67.884,724.594 -65.352,723.009 -62,721C-55.46,715.429 -36.974,697.394 -34,693.438C-32,691 -32,691 -29.313,688.875C-26.748,687.139 -26.748,687.139 -26,684C-25.34,683.67 -24.68,683.34 -24,683C-22.986,681.342 -21.989,679.673 -21,678C-19.676,676.326 -18.344,674.658 -17,673C-16.67,672.34 -16.34,671.68 -16,671C-11.466,668.442 -10.889,668.979 -9,664L-7,664C-6.461,662.59 -3.194,654.047 3,648C3.508,647.318 8.333,640.834 10,640C10.686,638.389 11.367,636.776 12.031,635.156C15.146,628.224 19.334,622.248 24.484,616.691C27.594,613.221 28.395,610.536 29,606L31,606L31,602L33,602L41.039,580.531C43.215,575.282 44.861,570.068 46.293,564.57C47.067,561.756 48.062,559.056 49.117,556.336C56.508,536.78 71.294,473.382 62.677,437.082C61.819,433.178 61.631,429.618 61.563,425.625C60.724,401.708 44.981,362.506 42.867,357.243C41.25,353.06 31.429,327.662 18,307C-3.051,273.126 -23.881,245.807 -41.406,217.902C-46.046,209.453 -42.67,189.487 -42.258,187.053C-41.014,179.693 -31.789,138.328 -31,136C-29.786,130.249 -30.441,130.358 -16.984,63.883C-15.15,54.566 -13.727,14.176 -13.574,9.848C-12.838,6.196 -11.268,3.923 -9,1C-5.9,-0.55 -3.421,-0.29 0,0Z" style="fill:rgb(43,54,31);fill-rule:nonzero;"/>
        </g>
        <g transform="matrix(1,0,0,1,1710.31,2418.55)">
            <path d="M0,0C2.763,0.523 5.326,1.109 8,2L8,4C24.643,3.903 43.931,2.954 50,7C54.532,7.395 84.128,7.575 90,9C93.723,30.892 92.331,108.233 94.5,128.786C95.925,143.985 94.536,218.006 98,241C98.374,245.891 98.366,250.806 98.719,255.699C98.864,257.714 98.874,259.786 99.493,261.708C100.003,264.016 102.725,325.318 100,334C96.424,337.644 92.554,339.774 88,342C83.472,344.988 50.796,366.552 32.992,381.66C24.95,387.069 -60.489,385.289 -74.356,383.233C-78.614,382.602 -81.765,378.829 -85.28,376.343C-112.588,357.027 -110.879,355.064 -138.402,336.047L-142.756,332.638C-146.444,329.437 -148.435,327.111 -148.855,322.151C-148.861,321.707 -148.615,177.229 -145,170C-144.124,152.621 -145.443,14.443 -143,12C-98.944,9.384 -99.019,13.08 -54.809,9.43C-47.863,8.871 -40.964,8.787 -34,9C-33.986,9.963 -33.839,19.839 -35,21C-35.697,32.379 -34.849,78.005 -37,90C-39.27,126.683 -38.791,185.791 -42,189C-44.739,204.385 -41.202,258.475 -46.293,282.529C-47.203,286.999 -47.683,291.454 -48,296C-46.92,295.951 -36.1,295.465 -34.719,293.5C-31.611,290.788 -10.706,291.1 -5,291C-4.873,267.717 -3.504,17.41 0,0Z" style="fill:rgb(48,57,36);fill-rule:nonzero;"/>
        </g>
        <g transform="matrix(1,0,0,1,1399.75,2435.67)">
            <path d="M0,0L3.744,2.013C10.755,5.788 17.737,9.613 24.688,13.5C35.196,19.712 35.196,19.712 46.563,23.875C46.639,28.048 46.692,32.22 46.727,36.393C46.742,37.802 46.762,39.21 46.789,40.619C46.946,49.169 46.45,57.266 45.047,65.707C43.695,74.023 43.374,82.08 43.473,90.5L43.499,94.054C43.54,98.887 43.592,103.718 43.73,108.549C44.323,131.159 44.323,131.159 38.489,138.066C36.484,140.071 34.404,141.876 32.155,143.601C29.389,145.813 27.02,148.392 24.563,150.938C22.143,153.332 19.725,155.721 17.25,158.059C15.336,159.706 15.336,159.706 15.563,161.875L17.145,162.688C26.664,167.755 35.034,174.294 43.273,181.211C45.463,182.995 45.463,182.995 48.063,183.626C50.563,184.875 50.563,184.875 51.906,187.367C54.503,196.155 55.121,204.302 55.125,213.438C55.098,224.247 55.098,224.247 57.055,234.82C59.138,242.201 59.058,249.583 59.125,257.188C59.149,259.318 59.177,261.447 59.217,263.577C59.252,265.496 59.272,267.415 59.291,269.333C59.658,274.121 61.052,278.344 62.563,282.875C62.927,287.119 62.979,291.367 63.063,295.625L63.227,299.164C63.36,307.59 63.36,307.59 61.177,311.105C59.408,312.916 57.617,314.4 55.563,315.875L52.598,318.219L49.625,320.375C39.255,328.151 30.099,337.29 20.98,346.473L19.54,347.922C17.178,350.3 14.824,352.685 12.48,355.081L9.887,357.711L7.577,360.072C3.609,363.624 -0.878,363.026 -5.906,363.033L-8.529,363.048C-10.413,363.059 -12.297,363.067 -14.181,363.074C-17.182,363.086 -20.183,363.106 -23.184,363.127C-31.718,363.189 -40.252,363.243 -48.787,363.276C-54.01,363.298 -59.233,363.333 -64.456,363.377C-66.43,363.391 -68.403,363.4 -70.377,363.403C-73.174,363.408 -75.972,363.432 -78.769,363.458L-81.144,363.449C-90.828,363.584 -99.623,365.403 -109.438,366.875L-157.438,366.875L-157.438,-9.125L-57.438,-10.125C-31.235,-11.504 -21.621,-11.685 0,0ZM-37.438,70.875C-45.438,70.875 -45.438,70.875 -73.438,74.875L-74.438,136.875C-53.438,134.875 -53.438,134.875 -37.438,130.875L-37.438,70.875ZM-31.438,194.875C-37.438,194.875 -37.438,194.875 -39.771,195.514C-46.534,197.998 -52.782,198.314 -59.938,198.375L-63.219,198.402L-66.344,198.469C-69.166,198.49 -69.166,198.49 -71.438,198.875C-73.562,202.062 -73.671,203.66 -73.686,207.389L-73.665,209.651C-73.665,212.165 -73.663,214.679 -73.649,217.193C-73.638,218.991 -73.631,220.789 -73.627,222.586C-73.622,227.294 -73.61,232.001 -73.588,236.708C-73.561,242.548 -73.547,248.388 -73.535,254.229C-73.518,262.78 -73.518,262.78 -73.438,282.875L-31.438,282.875L-31.438,194.875Z" style="fill:rgb(48,57,36);"/>
        </g>
        <g transform="matrix(1,0,0,1,3025.31,2426.55)">
            <path d="M0,0L1.625,3.563C3.446,7.199 5.545,9.982 8.254,12.988C8.876,13.705 29.899,42.132 35.188,46.813C40.072,52.43 39.283,78.492 40.188,113.84C40.719,134.577 42.103,148.314 38.174,153.333C35.848,154.856 33.551,155.908 31,157C29.222,158.375 29.222,158.375 27.699,159.93L26.194,161.39L24.688,162.875C18.904,168.41 12.841,172.809 6,177C7.433,180.517 33.425,209.04 33.582,209.253C34.929,211.019 34.929,211.019 36.543,212.321C40.692,216.089 41.453,219.3 41.722,224.84C41.748,226.739 41.055,367.944 41,376C34.273,376.042 -22.88,376.401 -43,372C-44.241,369.517 -44.691,358.287 -46.007,356.096C-47.132,353.721 -47.257,352.142 -47.271,349.526L-47.302,346.865L-47.309,344.012L-47.385,337.994L-47.559,319.387L-47.559,316.551C-47.644,310.921 -48.678,307.196 -51,302C-51.297,299.204 -51.464,296.62 -51.477,293.828L-51.524,291.516C-51.571,289.094 -51.599,286.672 -51.625,284.25C-50.919,268.106 -50.919,268.106 -54.012,252.69C-55.284,249.226 -55.354,245.938 -55.414,242.293L-55.473,240.095C-55.532,237.792 -55.579,235.49 -55.625,233.188L-55.742,228.486C-55.838,224.658 -55.922,220.829 -56,217L-58.018,216.834C-66.757,216.051 -66.757,216.051 -70.813,214.5C-73.864,213.391 -76.782,212.519 -80,212L-79.508,213.619C-78.893,216.5 -78.877,219.152 -78.88,222.1L-78.876,225.89L-78.886,230.04L-78.886,234.416C-78.924,277.611 -78.962,320.805 -79,364L-80.765,364.072L-99.156,364.82L-105.995,365.098C-122.459,365.764 -122.459,365.764 -138.921,366.488C-147.511,366.848 -156.077,367.052 -164.676,367.023L-167.708,367.018C-170.138,367.014 -172.569,367.008 -175,367C-175.17,333.332 -175.751,260.811 -173.531,226.406C-171.876,200.452 -171.619,174.531 -171.488,148.531L-171.472,145.343C-171.315,98.229 -171.157,51.114 -171,4L-167.352,3.976C-95.702,3.542 -95.702,3.542 -24.129,0.435C-16.076,-0.049 -8.066,-0.154 0,0ZM-87,88L-87,98L-85,98C-84.394,100.113 -83.997,102.047 -83.855,104.245L-83.826,106.721L-83.786,109.542C-83.67,120.636 -83.464,133.374 -83.43,135.447L-83.379,138.566L-83.353,141.597L-83.303,144.408C-83.257,148.028 -83.107,148.839 -81,152C-73.02,152.869 -62.212,153.121 -55,149C-53.728,146.419 -53.023,144.153 -52.589,141.306L-52.367,138.371L-52.113,135.022L-51.875,131.438C-50.865,116.916 -50.851,102.558 -51,88L-87,88Z" style="fill:rgb(48,57,36);"/>
        </g>
        <g transform="matrix(1,0,0,1,2069.46,2426.28)">
            <path d="M10.977,-0.487L14.758,-0.753C18.425,-0.847 21.334,-0.789 24.852,0.263C28.074,3.519 29.86,7.176 31.852,11.263C34.258,14.794 51.1,39.51 64.852,53.263C65.001,56.263 65.084,59.242 65.124,62.245L65.173,65.103C65.252,69.961 65.175,69.875 65.84,125.829C66.018,140.806 71.337,142.103 62.693,154.312C60.157,156.371 57.775,157.825 54.852,159.263C53.543,160.175 52.247,161.108 50.977,162.075L49.071,163.481C45.523,166.329 42.355,169.623 38.888,172.568C36.945,174.219 35.132,176.123 32.852,177.263C33.398,181.32 35.491,183.39 38.227,186.325L40.626,188.923C41.932,190.295 43.261,191.648 44.641,192.946C45.852,194.263 45.852,194.263 45.852,196.263L48.852,197.263C50.607,199.004 52.028,201.056 53.723,202.856C55.134,204.353 56.534,205.888 58.163,207.144C63.32,211.649 65.363,215.546 65.849,222.251C65.937,225.016 65.887,224.929 65.756,286.201C65.741,293.201 67.966,369.76 67.852,376.263C16.419,376.468 10.781,375.825 5.852,375.263L4.852,374.263C3.075,374.035 1.29,373.868 -0.496,373.727L-3.767,373.464L-7.21,373.2L-10.665,372.925C-13.493,372.7 -16.32,372.479 -19.148,372.263L-19.192,370.019C-19.267,366.62 -19.364,363.223 -19.46,359.825L-19.529,356.296L-19.636,352.829L-19.716,349.671C-20.085,346.762 -20.649,344.729 -21.654,342.025C-23.484,336.82 -23.572,331.972 -23.554,326.497L-23.587,323.477C-23.707,312.394 -23.621,312.565 -23.742,301.497L-23.732,298.612C-23.792,293.36 -24.409,290.778 -27.148,286.263C-27.6,283.001 -27.565,279.754 -27.554,276.466L-27.587,273.592L-27.742,252.591L-27.732,249.862C-27.794,244.567 -28.533,240.241 -30.456,235.296C-31.634,231.833 -31.716,228.33 -31.835,224.7L-31.939,222.511C-32.02,220.762 -32.086,219.012 -32.148,217.263L-33.871,217.149C-39.216,216.694 -43.21,215.457 -48.148,213.263C-50.475,212.89 -52.809,212.551 -55.148,212.263L-55.11,216.029C-54.044,322.035 -54.118,351.484 -54.148,363.263C-57.32,364.32 -59.932,364.545 -63.265,364.763L-67.006,365.011L-71.023,365.263L-73.092,365.394L-92.328,366.614C-111.557,367.821 -130.891,367.349 -150.148,367.263C-150.372,354.787 -147.88,294.47 -147.68,186.826L-147.676,184.66L-147.644,167.273L-147.616,152.047L-147.612,149.879C-147.567,125.738 -147.785,45.178 -145.148,4.263L-141.569,4.234C-34.97,3.377 -18.676,0.524 10.977,-0.487ZM-59.148,88.263C-59.309,120.447 -60.353,120.517 -55.148,152.263C-45.815,150.929 -36.481,149.596 -27.148,148.263L-27.148,88.263L-59.148,88.263Z" style="fill:rgb(49,57,36);"/>
        </g>
        <g transform="matrix(1,0,0,1,2297.55,2417.92)">
            <path d="M0,0C1.441,0.009 2.883,0.015 4.324,0.019C8.135,0.036 11.944,0.09 15.754,0.151C19.543,0.204 23.331,0.22 27.119,0.24C90.4,0.655 90.4,0.655 103.074,11.059C108.469,15.425 113.983,19.626 119.505,23.828C123.447,26.833 127.351,29.871 131.199,32.996C135.19,36.235 139.346,39.146 143.633,41.98C145.957,43.771 147.258,45.095 148.762,47.621C149.146,50.844 149.146,50.844 149.168,54.684C149.188,56.12 149.208,57.556 149.229,58.991C149.234,59.745 149.239,60.499 149.244,61.276C149.333,73.094 149.799,84.702 151.324,96.434C153.523,113.762 153.034,131.19 152.762,148.621C151.504,148.641 150.247,148.661 148.952,148.681C119.045,149.076 119.045,149.076 89.208,150.956C79.387,151.825 69.613,151.809 59.762,151.621C59.558,130.61 60.179,109.622 60.762,88.621C59.961,88.637 59.16,88.653 58.334,88.669C54.664,88.732 50.994,88.77 47.324,88.809C46.064,88.834 44.804,88.859 43.506,88.885C36.294,88.941 30.408,88.46 23.762,85.621C22.277,85.126 22.277,85.126 20.762,84.621L20.762,300.621L64.762,300.621L64.762,290.621C65.494,288.201 66.23,285.781 67.043,283.387C68.164,279.072 68.179,274.75 68.258,270.309C68.932,265.373 70.763,261.157 72.762,256.621C72.106,256.632 71.45,256.642 70.774,256.653C67.812,256.694 64.849,256.72 61.887,256.746C60.854,256.763 59.822,256.78 58.758,256.797C57.772,256.803 56.786,256.81 55.77,256.816C54.858,256.827 53.947,256.837 53.008,256.848C50.762,256.621 50.762,256.621 48.762,254.621C48.574,252.001 48.51,249.487 48.535,246.867C48.534,246.054 48.534,245.241 48.534,244.403C48.535,241.765 48.551,239.127 48.566,236.488C48.569,234.862 48.571,233.236 48.573,231.61C48.583,225.572 48.611,219.534 48.637,213.496C48.699,193.263 48.699,193.263 48.762,172.621L155.762,172.621C155.762,198.983 155.762,198.983 155.422,211.688C155.356,214.14 155.295,216.591 155.234,219.042C155.055,226.196 154.868,233.35 154.68,240.504C154.534,246.064 154.391,251.624 154.25,257.184C154.227,258.099 154.204,259.014 154.18,259.957C153.891,271.462 153.686,282.963 153.628,294.472C153.617,296.523 153.603,298.574 153.587,300.626C153.539,306.793 153.516,312.959 153.543,319.126C153.529,321.278 153.513,323.43 153.496,325.582C153.512,326.539 153.527,327.497 153.543,328.483C153.449,334.753 153.449,334.753 151.457,337.271C149.858,338.611 149.858,338.611 146.762,340.621C145.069,342.261 143.407,343.933 141.762,345.621C121.455,366.28 121.455,366.28 113.223,372.668C109.36,375.734 105.784,379.105 102.172,382.457C101.377,383.171 100.581,383.885 99.762,384.621C99.252,385.154 98.743,385.687 98.219,386.236C94.318,388.435 90.444,388.007 86.043,387.949C85.057,387.948 84.071,387.947 83.055,387.946C79.79,387.937 76.526,387.905 73.262,387.871C70.99,387.854 68.718,387.838 66.446,387.823C61.674,387.786 56.902,387.739 52.13,387.686C45.995,387.623 39.861,387.618 33.725,387.63C28.983,387.634 24.242,387.607 19.5,387.574C17.227,387.564 14.954,387.565 12.682,387.578C9.495,387.592 6.311,387.563 3.125,387.523C2.191,387.538 1.256,387.552 0.294,387.567C-5.962,387.428 -9.085,385.836 -13.524,381.438C-14.09,380.839 -14.656,380.239 -15.238,379.621C-16.087,378.809 -16.936,377.998 -17.811,377.162C-18.534,376.434 -19.256,375.707 -20,374.957C-20.809,374.145 -21.618,373.333 -22.451,372.496C-23.268,371.671 -24.084,370.846 -24.926,369.996C-25.754,369.163 -26.582,368.331 -27.436,367.473C-28.976,365.924 -30.515,364.373 -32.053,362.822C-32.774,362.096 -33.495,361.369 -34.238,360.621C-35.035,359.803 -35.832,358.986 -36.652,358.143C-39.314,355.547 -42.099,353.221 -44.977,350.867C-46.618,349.433 -48.246,347.984 -49.869,346.528C-50.975,345.562 -52.105,344.622 -53.259,343.713C-58.291,339.717 -62.451,335.521 -63.761,329.033C-64.386,322.051 -63.914,315.075 -63.488,308.092C-63.201,303.254 -63.058,298.416 -62.927,293.572C-62.878,291.749 -62.828,289.927 -62.778,288.104C-62.752,287.168 -62.726,286.232 -62.7,285.268C-62.556,280.231 -62.389,275.196 -62.224,270.16C-61.047,233.9 -60.136,197.678 -60.068,161.4C-60.061,158.203 -60.052,155.005 -60.042,151.808C-60.002,137.633 -59.97,123.458 -60.033,109.283C-60.058,103.334 -60.058,97.386 -60.042,91.437C-60.033,87.977 -60.037,84.517 -60.072,81.057C-60.106,77.272 -60.096,73.49 -60.077,69.705C-60.098,68.605 -60.118,67.506 -60.139,66.373C-60.033,58.4 -57.629,54.361 -52.238,48.621C-51.177,47.212 -48.993,44.312 -48.426,43.559C-47.862,42.804 -47.299,42.05 -46.719,41.273C-46.23,40.728 -45.742,40.183 -45.238,39.621L-43.238,39.621C-42.961,39.035 -42.684,38.448 -42.398,37.844C-38.872,31.087 -33.362,25.284 -28.547,19.43C-26.329,16.731 -24.12,14.026 -21.926,11.309C-21.311,10.549 -20.696,9.79 -20.063,9.008C-18.083,6.644 -18.083,6.644 -17.014,3.511C-13.438,-1.8 -5.674,-0.118 0,0Z" style="fill:rgb(49,57,36);fill-rule:nonzero;"/>
        </g>
        <g transform="matrix(1,0,0,1,2635.63,2427.43)">
            <path d="M0,0C1.89,-0 1.89,-0 3.819,-0C7.229,-0.001 10.639,0.005 14.049,0.012C17.63,0.018 21.211,0.019 24.792,0.02C31.552,0.023 38.312,0.031 45.073,0.042C52.778,0.053 60.483,0.058 68.188,0.063C84.02,0.074 99.851,0.091 115.682,0.114C114.922,45.047 114.922,45.047 112.62,65.239C112.43,67.022 112.242,68.806 112.055,70.59C111.615,74.767 111.156,78.941 110.682,83.114C92.299,83.369 74.036,82.618 55.682,81.614C46.442,81.119 37.202,80.624 27.682,80.114L27.682,139.114C32.632,139.444 37.582,139.774 42.682,140.114C47.518,140.614 47.518,140.614 49.744,140.862C63.832,142.395 77.974,142.535 92.131,142.772C93.017,142.788 93.902,142.804 94.815,142.821C96.503,142.851 98.191,142.878 99.88,142.899C105.571,143.002 105.571,143.002 106.682,144.114C106.777,146.456 106.808,148.769 106.796,151.112C106.796,151.843 106.796,152.575 106.796,153.329C106.796,155.758 106.788,158.188 106.78,160.617C106.778,162.298 106.777,163.978 106.776,165.658C106.772,170.088 106.762,174.519 106.751,178.949C106.741,183.467 106.736,187.985 106.731,192.502C106.72,201.373 106.703,210.243 106.682,219.114C106.027,219.136 105.371,219.158 104.696,219.182C101.689,219.288 98.682,219.404 95.675,219.52C94.644,219.555 93.613,219.59 92.55,219.626C86.805,219.855 81.42,220.367 75.807,221.614C65.699,223.731 55.368,223.633 45.079,223.823C44.022,223.843 44.022,223.843 42.944,223.864C41.004,223.9 39.063,223.928 37.123,223.956C33.236,224.066 33.236,224.066 27.682,225.114C27.352,248.214 27.022,271.314 26.682,295.114C40.806,294.57 53.884,293.988 67.729,292.524C80.641,291.443 93.738,291.961 106.682,292.114C106.705,292.738 106.728,293.363 106.752,294.007C106.992,300.562 107.236,307.116 107.482,313.671C107.573,316.111 107.663,318.551 107.752,320.991C107.881,324.517 108.014,328.042 108.147,331.567C108.186,332.642 108.224,333.718 108.264,334.826C108.456,339.808 108.727,344.748 109.216,349.71C109.978,358.157 109.762,366.641 109.682,375.114C92.173,375.184 74.664,375.237 57.154,375.269C49.021,375.284 40.888,375.305 32.755,375.34C25.651,375.37 18.547,375.389 11.443,375.396C7.695,375.4 3.948,375.408 0.2,375.431C-16.713,375.527 -33.299,374.883 -50.112,372.838C-57.83,371.899 -65.552,371.435 -73.318,371.114C-73.711,261.854 -73.711,261.854 -72.38,226.739C-72.337,225.585 -72.293,224.431 -72.248,223.242C-71.615,207.021 -71.615,207.021 -71.077,199.94C-70.328,189.976 -70.154,180.064 -70.128,170.074C-70.12,168.318 -70.112,166.562 -70.103,164.806C-70.085,161.058 -70.07,157.309 -70.057,153.561C-70.037,147.631 -70.009,141.701 -69.981,135.771C-69.916,122.128 -69.86,108.484 -69.805,94.84C-69.754,82.302 -69.701,69.763 -69.64,57.225C-69.612,51.332 -69.588,45.438 -69.568,39.545C-69.555,35.884 -69.537,32.224 -69.519,28.564C-69.511,26.868 -69.505,25.173 -69.501,23.477C-69.495,21.161 -69.483,18.845 -69.469,16.53C-69.464,15.235 -69.459,13.94 -69.453,12.605C-69.327,9.352 -68.935,6.307 -68.318,3.114C-67.113,3.058 -65.909,3.003 -64.668,2.946C-60.141,2.737 -55.614,2.526 -51.087,2.314C-49.139,2.223 -47.191,2.133 -45.243,2.043C-42.42,1.914 -39.597,1.781 -36.775,1.649C-35.923,1.61 -35.071,1.572 -34.194,1.532C-29.557,1.311 -24.942,1.001 -20.317,0.602C-13.534,0.077 -6.8,-0.021 0,0Z" style="fill:rgb(48,57,36);fill-rule:nonzero;"/>
        </g>
        <g transform="matrix(0.942792,0,0,0.942792,737.682,1284.73)">
            <path d="M0,0C0.715,0.379 1.431,0.758 2.168,1.148C8.083,4.487 13.262,8.505 18.534,12.749C23.737,16.894 29.184,20.493 34.828,24.004C37.481,25.674 40.017,27.424 42.563,29.25C46.983,32.23 51.705,33.92 56.699,35.723C59.83,36.934 62.672,38.348 65.625,39.938C71.48,42.969 77.472,44.791 83.762,46.668C91.554,49.048 98.74,52.335 106,56C106.66,56.33 107.32,56.66 108,57L108,59C108.639,59.309 109.279,59.619 109.938,59.938C112,61 112,61 113,62C112.868,67.938 110.545,72.327 107.816,77.527C106.487,80.068 105.209,82.61 103.965,85.191C103.618,85.906 103.271,86.62 102.914,87.356C102.235,88.757 101.561,90.161 100.892,91.568C99.023,95.381 97.073,98.099 94,101C93.505,102.485 93.505,102.485 93,104C90.561,106.371 88.983,107.876 85.558,108.307C82.428,107.931 81.525,107.101 79.316,104.898C74.889,100.775 70.111,97.731 64.938,94.625C64.005,94.058 63.072,93.492 62.111,92.908C60.248,91.777 58.382,90.648 56.515,89.523C54.436,88.264 52.372,86.986 50.316,85.688C36.534,77.116 21.847,70.041 7.397,62.673C-15.365,51.036 -15.365,51.036 -19.198,41.66C-20.725,36.595 -20.957,31.446 -21.25,26.188C-21.327,25.089 -21.405,23.99 -21.484,22.857C-21.701,19.572 -21.864,16.29 -22,13C-22.05,11.881 -22.099,10.761 -22.15,9.608C-22.178,8.537 -22.206,7.466 -22.234,6.363C-22.262,5.403 -22.29,4.443 -22.319,3.454C-22,1 -22,1 -20.591,-0.792C-14.58,-5.356 -6.071,-3.293 0,0Z" style="fill:rgb(42,54,31);fill-rule:nonzero;"/>
        </g>
        <g transform="matrix(0.942792,0,0,0.942792,1414.81,1297.57)">
            <path d="M0,0C4.241,3.283 7.366,6.752 8.223,12.168C8.375,19.704 6.768,24.942 1.723,30.559C-3.813,35.749 -10.635,39.151 -17.406,42.441C-27.209,47.231 -36.503,52.897 -45.897,58.434C-49.331,60.445 -52.777,62.432 -56.23,64.41C-56.811,64.743 -57.392,65.076 -57.99,65.419C-60.792,67.026 -63.595,68.629 -66.401,70.229C-71.809,73.331 -77.089,76.522 -82.222,80.062C-85.078,81.945 -88.074,83.529 -91.086,85.145C-93.187,86.36 -95.048,87.711 -96.969,89.191C-100.354,91.47 -101.312,91.961 -105.219,91.379C-106.914,89.77 -106.914,89.77 -108.344,87.629C-108.821,86.933 -109.298,86.237 -109.789,85.52C-110.261,84.813 -110.733,84.107 -111.219,83.379C-111.959,82.493 -111.959,82.493 -112.715,81.59C-114.793,78.534 -115.927,75.211 -117.156,71.754C-117.682,70.316 -118.208,68.879 -118.734,67.441C-118.988,66.745 -119.241,66.049 -119.502,65.332C-121.427,60.086 -123.433,54.923 -125.969,49.941C-127.219,47.379 -127.219,47.379 -127.219,44.379C-120.118,41.113 -112.89,38.241 -105.594,35.441C-104.52,35.024 -103.446,34.607 -102.34,34.178C-96.661,31.993 -90.975,29.965 -85.176,28.121C-76.281,25.193 -67.78,21.443 -59.229,17.641C-56.528,16.44 -53.822,15.249 -51.115,14.061C-43.804,10.837 -36.529,7.599 -29.414,3.961C-25.236,1.829 -21.308,0.228 -16.781,-0.996C-15.648,-1.313 -14.515,-1.63 -13.348,-1.957C-8.026,-3.086 -4.726,-2.974 0,0Z" style="fill:rgb(43,52,31);fill-rule:nonzero;"/>
        </g>
        <g transform="matrix(0.942792,0,0,0.942792,858.359,1512.88)">
            <path d="M0,0C12.425,3.922 27.866,10.532 34.25,22.625C34.865,24.07 35.444,25.531 36,27C36.397,27.973 36.794,28.946 37.203,29.949C40.177,37.66 42.092,45.326 43.656,53.427C44.311,56.813 44.993,59.979 46.113,63.25C47.003,66.01 47.169,68.123 47,71C40.31,73.058 35.348,71.746 29.25,68.625C-5.865,50.029 -5.865,50.029 -12,36C-13.866,28.432 -14.243,20.699 -14.375,12.938C-14.401,12.116 -14.427,11.295 -14.454,10.449C-14.465,6.666 -14.451,4.644 -12.238,1.484C-8.148,-1.228 -4.735,-0.875 0,0Z" style="fill:rgb(42,54,31);fill-rule:nonzero;"/>
        </g>
        <g transform="matrix(0.942792,0,0,0.942792,1291.16,1513.71)">
            <path d="M0,0C2.217,2.432 2.328,3.12 2.5,6.313C1.593,22.681 -4.755,39.019 -17.063,50.125C-29.69,60.334 -29.69,60.334 -35.063,62.125L-35.063,64.125C-36.79,64.775 -38.52,65.42 -40.25,66.063C-41.694,66.602 -41.694,66.602 -43.168,67.152C-47.288,68.537 -51.03,69.261 -55.375,69.188C-57.2,69.157 -57.2,69.157 -59.063,69.125C-59.523,60.524 -57.759,52.5 -56.063,44.125C-55.813,42.671 -55.813,42.671 -55.559,41.188C-53.985,32.117 -50.507,23.862 -44.063,17.125C-43.073,16.795 -42.083,16.465 -41.063,16.125C-40.366,14.807 -39.702,13.471 -39.063,12.125C-35.022,7.765 -30.64,5.18 -25.063,3.125C-24.051,2.725 -24.051,2.725 -23.02,2.316C-15.464,-0.646 -7.989,-2.282 0,0Z" style="fill:rgb(42,54,31);fill-rule:nonzero;"/>
        </g>
    </g>
</svg>
